<?xml version="1.0" encoding="utf-8"?>
<svg viewBox="249.8 121.7 525.4 525.4" xmlns="http://www.w3.org/2000/svg">
  <defs>
    <style type="text/css">
	.st0{fill-rule:evenodd;clip-rule:evenodd;}
</style>
  </defs>
  <path class="st0" d="M354.9,121.7c-58,0-105.1,47-105.1,105.1v315.2c0,58,47,105.1,105.1,105.1h315.2c58,0,105.1-47,105.1-105.1 V226.8c0-58-47-105.1-105.1-105.1H354.9z M592.8,501.5c0,0-10.1-12-18.4-22.3c36.6-10.3,50.6-33,50.6-33 c-11.5,7.5-22.3,12.8-32.1,16.5c-14,5.9-27.4,9.5-40.5,12c-26.8,5-51.4,3.6-72.3-0.3c-15.9-3.1-29.6-7.3-41.1-12 c-6.4-2.5-13.4-5.6-20.4-9.5c-0.4-0.3-0.8-0.5-1.3-0.7c-0.4-0.2-0.8-0.4-1.3-0.7c-0.2-0.1-0.4-0.2-0.5-0.3c-0.2-0.1-0.4-0.3-0.6-0.3 c-5-2.8-7.8-4.7-7.8-4.7s13.4,22.1,48.9,32.7c-8.4,10.6-18.7,22.9-18.7,22.9c-61.7-2-85.2-42.2-85.2-42.2 c0-89.1,40.2-161.5,40.2-161.5c40.2-29.9,78.2-29.1,78.2-29.1l2.8,3.4c-50.3,14.2-73.2,36.3-73.2,36.3s6.1-3.4,16.5-7.8 c29.9-13.1,53.6-16.5,63.4-17.6l0.6-0.1c1.4-0.2,2.7-0.5,4.1-0.5c17-2.2,36.3-2.8,56.4-0.6c26.5,3.1,55,10.9,84.1,26.5 c0,0-22.1-21-69.6-35.2l3.9-4.5c0,0,38.3-0.8,78.2,29.1c0,0,40.2,72.3,40.2,161.5c0,0-0.1,0.1-0.2,0.3 C675.5,463.5,651.3,499.7,592.8,501.5z M564.9,372.2c-15.9,0-28.5,13.7-28.5,30.7s12.8,30.7,28.5,30.7c15.9,0,28.5-13.7,28.5-30.7 S580.5,372.2,564.9,372.2z M462.9,372.2c-15.9,0-28.5,13.7-28.5,30.7s12.8,30.7,28.5,30.7c15.9,0,28.5-13.7,28.5-30.7 C491.7,385.9,478.9,372.2,462.9,372.2z" transform="matrix(1, 0, 0, 1, 7.105427357601002e-15, 0)"/>
</svg>