{
    "asset" : {
        "generator" : "Khronos glTF Blender I/O v1.8.19",
        "version" : "2.0"
    },
    "extensionsUsed" : [
        "KHR_lights_punctual"
    ],
    "extensionsRequired" : [
        "KHR_lights_punctual"
    ],
    "extensions" : {
        "KHR_lights_punctual" : {
            "lights" : [
                {
                    "color" : [
                        1,
                        0.9964292645454407,
                        0.9857612252235413
                    ],
                    "intensity" : 1225.300048828125,
                    "type" : "point",
                    "name" : "Light"
                },
                {
                    "color" : [
                        0.5914101004600525,
                        1,
                        0.5221564769744873
                    ],
                    "intensity" : 200,
                    "type" : "point",
                    "name" : "Point"
                },
                {
                    "color" : [
                        1,
                        0.9299921989440918,
                        0.9822201132774353
                    ],
                    "intensity" : 3,
                    "type" : "point",
                    "name" : "Point.001"
                },
                {
                    "color" : [
                        1,
                        0.6560385227203369,
                        0.18256737291812897
                    ],
                    "intensity" : 100,
                    "type" : "point",
                    "name" : "Point.002"
                },
                {
                    "color" : [
                        0.06042615324258804,
                        1,
                        0.047960106283426285
                    ],
                    "intensity" : 200,
                    "type" : "point",
                    "name" : "Point.003"
                },
                {
                    "color" : [
                        0.7719351053237915,
                        1,
                        0.006932549644261599
                    ],
                    "intensity" : 200,
                    "type" : "point",
                    "name" : "Point.004"
                }
            ]
        }
    },
    "scene" : 0,
    "scenes" : [
        {
            "extras" : {
                "sketcher" : {
                    "entities" : {},
                    "constraints" : {},
                    "version" : [
                        0,
                        20,
                        0
                    ]
                }
            },
            "name" : "Scene",
            "nodes" : [
                1,
                2,
                3,
                4,
                6,
                8,
                10,
                12,
                14
            ]
        }
    ],
    "nodes" : [
        {
            "extensions" : {
                "KHR_lights_punctual" : {
                    "light" : 0
                }
            },
            "name" : "Light_Orientation",
            "rotation" : [
                -0.7071067690849304,
                0,
                0,
                0.7071067690849304
            ]
        },
        {
            "children" : [
                0
            ],
            "name" : "Light",
            "rotation" : [
                0.07677357643842697,
                0.7500115633010864,
                -0.21374857425689697,
                0.6212085485458374
            ],
            "scale" : [
                81.32149505615234,
                81.32150268554688,
                81.32148742675781
            ],
            "translation" : [
                3.3950610160827637,
                2.9932985305786133,
                -1.0054538249969482
            ]
        },
        {
            "mesh" : 0,
            "name" : "tube",
            "translation" : [
                -0.7222815752029419,
                0.3901878595352173,
                0
            ]
        },
        {
            "mesh" : 1,
            "name" : "money",
            "translation" : [
                0.5076189041137695,
                -1.9424766302108765,
                0.06236618757247925
            ]
        },
        {
            "mesh" : 2,
            "name" : "goo",
            "translation" : [
                -0.7222815752029419,
                0.3901878595352173,
                0
            ]
        },
        {
            "extensions" : {
                "KHR_lights_punctual" : {
                    "light" : 1
                }
            },
            "name" : "Point_Orientation",
            "rotation" : [
                -0.7071067690849304,
                0,
                0,
                0.7071067690849304
            ]
        },
        {
            "children" : [
                5
            ],
            "name" : "Point",
            "rotation" : [
                0.3130260407924652,
                -0.00024128546647261828,
                0.42540207505226135,
                0.8491452932357788
            ],
            "translation" : [
                -3.9801125526428223,
                1.129793405532837,
                4.593182563781738
            ]
        },
        {
            "extensions" : {
                "KHR_lights_punctual" : {
                    "light" : 2
                }
            },
            "name" : "Point.001_Orientation",
            "rotation" : [
                -0.7071067690849304,
                0,
                0,
                0.7071067690849304
            ]
        },
        {
            "children" : [
                7
            ],
            "name" : "Point.001",
            "rotation" : [
                0.20698124170303345,
                -0.02407473884522915,
                0.18489980697631836,
                0.9604121446609497
            ],
            "scale" : [
                32.33359146118164,
                32.33359146118164,
                32.33359146118164
            ],
            "translation" : [
                -3.9801125526428223,
                3.9613118171691895,
                4.593182563781738
            ]
        },
        {
            "extensions" : {
                "KHR_lights_punctual" : {
                    "light" : 3
                }
            },
            "name" : "Point.002_Orientation",
            "rotation" : [
                -0.7071067690849304,
                0,
                0,
                0.7071067690849304
            ]
        },
        {
            "children" : [
                9
            ],
            "name" : "Point.002",
            "rotation" : [
                -0.11121399700641632,
                -0.032802339643239975,
                -0.09853041917085648,
                0.988355815410614
            ],
            "scale" : [
                32.33359146118164,
                32.33359146118164,
                32.33359146118164
            ],
            "translation" : [
                1.961578369140625,
                -0.10053873062133789,
                1.1360571384429932
            ]
        },
        {
            "extensions" : {
                "KHR_lights_punctual" : {
                    "light" : 4
                }
            },
            "name" : "Point.003_Orientation",
            "rotation" : [
                -0.7071067690849304,
                0,
                0,
                0.7071067690849304
            ]
        },
        {
            "children" : [
                11
            ],
            "name" : "Point.003",
            "rotation" : [
                0.3086571991443634,
                0,
                0.4188065230846405,
                0.8540092706680298
            ],
            "translation" : [
                2.5195400714874268,
                -1.26228928565979,
                4.593182563781738
            ]
        },
        {
            "extensions" : {
                "KHR_lights_punctual" : {
                    "light" : 5
                }
            },
            "name" : "Point.004_Orientation",
            "rotation" : [
                -0.7071067690849304,
                0,
                0,
                0.7071067690849304
            ]
        },
        {
            "children" : [
                13
            ],
            "name" : "Point.004",
            "rotation" : [
                0.3086571991443634,
                0,
                0.4188065230846405,
                0.8540092706680298
            ],
            "translation" : [
                -4.645721435546875,
                -1.26228928565979,
                -0.24126243591308594
            ]
        }
    ],
    "meshes" : [
        {
            "name" : "Cylinder",
            "primitives" : [
                {
                    "attributes" : {
                        "POSITION" : 0,
                        "NORMAL" : 1,
                        "TEXCOORD_0" : 2
                    },
                    "indices" : 3
                }
            ]
        },
        {
            "name" : "Text",
            "primitives" : [
                {
                    "attributes" : {
                        "POSITION" : 4,
                        "NORMAL" : 5,
                        "TEXCOORD_0" : 6
                    },
                    "indices" : 7
                }
            ]
        },
        {
            "name" : "Cylinder.001",
            "primitives" : [
                {
                    "attributes" : {
                        "POSITION" : 8,
                        "NORMAL" : 9,
                        "TEXCOORD_0" : 10
                    },
                    "indices" : 11
                }
            ]
        }
    ],
    "accessors" : [
        {
            "bufferView" : 0,
            "componentType" : 5126,
            "count" : 779,
            "max" : [
                4.785816192626953,
                1.956404447555542,
                2.8481974601745605
            ],
            "min" : [
                -1.7717421054840088,
                -5.550064563751221,
                -2.8481974601745605
            ],
            "type" : "VEC3"
        },
        {
            "bufferView" : 1,
            "componentType" : 5126,
            "count" : 779,
            "type" : "VEC3"
        },
        {
            "bufferView" : 2,
            "componentType" : 5126,
            "count" : 779,
            "type" : "VEC2"
        },
        {
            "bufferView" : 3,
            "componentType" : 5123,
            "count" : 3444,
            "type" : "SCALAR"
        },
        {
            "bufferView" : 4,
            "componentType" : 5126,
            "count" : 566,
            "max" : [
                0.7003499865531921,
                1.1561613082885742,
                0.3501632511615753
            ],
            "min" : [
                -0.7535889744758606,
                -1.4411380290985107,
                -0.3501644432544708
            ],
            "type" : "VEC3"
        },
        {
            "bufferView" : 5,
            "componentType" : 5126,
            "count" : 566,
            "type" : "VEC3"
        },
        {
            "bufferView" : 6,
            "componentType" : 5126,
            "count" : 566,
            "type" : "VEC2"
        },
        {
            "bufferView" : 7,
            "componentType" : 5123,
            "count" : 3108,
            "type" : "SCALAR"
        },
        {
            "bufferView" : 8,
            "componentType" : 5126,
            "count" : 64,
            "max" : [
                4.491479873657227,
                -1.9225304126739502,
                2.5887258052825928
            ],
            "min" : [
                -0.1420634388923645,
                -5.251743316650391,
                -2.5887258052825928
            ],
            "type" : "VEC3"
        },
        {
            "bufferView" : 9,
            "componentType" : 5126,
            "count" : 64,
            "type" : "VEC3"
        },
        {
            "bufferView" : 10,
            "componentType" : 5126,
            "count" : 64,
            "type" : "VEC2"
        },
        {
            "bufferView" : 11,
            "componentType" : 5123,
            "count" : 372,
            "type" : "SCALAR"
        }
    ],
    "bufferViews" : [
        {
            "buffer" : 0,
            "byteLength" : 9348,
            "byteOffset" : 0
        },
        {
            "buffer" : 0,
            "byteLength" : 9348,
            "byteOffset" : 9348
        },
        {
            "buffer" : 0,
            "byteLength" : 6232,
            "byteOffset" : 18696
        },
        {
            "buffer" : 0,
            "byteLength" : 6888,
            "byteOffset" : 24928
        },
        {
            "buffer" : 0,
            "byteLength" : 6792,
            "byteOffset" : 31816
        },
        {
            "buffer" : 0,
            "byteLength" : 6792,
            "byteOffset" : 38608
        },
        {
            "buffer" : 0,
            "byteLength" : 4528,
            "byteOffset" : 45400
        },
        {
            "buffer" : 0,
            "byteLength" : 6216,
            "byteOffset" : 49928
        },
        {
            "buffer" : 0,
            "byteLength" : 768,
            "byteOffset" : 56144
        },
        {
            "buffer" : 0,
            "byteLength" : 768,
            "byteOffset" : 56912
        },
        {
            "buffer" : 0,
            "byteLength" : 512,
            "byteOffset" : 57680
        },
        {
            "buffer" : 0,
            "byteLength" : 744,
            "byteOffset" : 58192
        }
    ],
    "buffers" : [
        {
            "byteLength" : 58936,
            "uri" : "data:application/octet-stream;base64,"
        }
    ]
}
